<mxfile host="app.diagrams.net" modified="2023-10-31T21:38:59.525Z" agent="Mozilla/5.0 (Macintosh; Intel Mac OS X 10_15_7) AppleWebKit/537.36 (KHTML, like Gecko) Chrome/118.0.0.0 Safari/537.36" version="22.0.8" etag="gPY9z03WkvtIKrz9XGJ2" type="github">
  <diagram name="Page-1" id="WVwOdAb5zhcnuu6RC09V">
    <mxGraphModel>
      <root>
        <mxCell id="0" />
        <mxCell id="1" parent="0" />
      </root>
    </mxGraphModel>
  </diagram>
</mxfile>
